<mxfile host="app.diagrams.net" modified="2022-10-29T20:49:57.287Z" agent="5.0 (Windows)" etag="I93M_m6bGogFNoQsF-Ug" version="20.4.0" type="github">
  <diagram id="3wBXSge-cAHv2GRjSBxU" name="Seite-1">
    <mxGraphModel dx="1038" dy="1705" grid="1" gridSize="10" guides="1" tooltips="1" connect="1" arrows="1" fold="1" page="1" pageScale="1" pageWidth="827" pageHeight="1169" math="0" shadow="0">
      <root>
        <mxCell id="0" />
        <mxCell id="1" parent="0" />
        <mxCell id="Tn2vft9ix7Atuxw_kMJM-29" value="Kind of Failure" style="rounded=0;whiteSpace=wrap;html=1;glass=0;strokeWidth=6;dashed=1;perimeterSpacing=6;gradientColor=none;fillColor=none;verticalAlign=top;" parent="1" vertex="1">
          <mxGeometry x="280" y="165" width="190" height="125" as="geometry" />
        </mxCell>
        <mxCell id="Tn2vft9ix7Atuxw_kMJM-40" value="ProtocollDescription" style="rounded=0;whiteSpace=wrap;html=1;glass=0;strokeWidth=6;dashed=1;perimeterSpacing=6;gradientColor=none;fillColor=none;verticalAlign=top;" parent="1" vertex="1">
          <mxGeometry x="400" y="-155" width="510" height="210" as="geometry" />
        </mxCell>
        <mxCell id="Tn2vft9ix7Atuxw_kMJM-27" value="&lt;h2&gt;&lt;font style=&quot;font-size: 14px; line-height: 1.3;&quot;&gt;Fehler Klassifikation&lt;/font&gt;&lt;/h2&gt;" style="rounded=0;whiteSpace=wrap;html=1;glass=0;strokeWidth=6;dashed=1;perimeterSpacing=6;gradientColor=none;fillColor=none;verticalAlign=top;" parent="1" vertex="1">
          <mxGeometry x="40" y="290" width="400" height="140" as="geometry" />
        </mxCell>
        <mxCell id="Tn2vft9ix7Atuxw_kMJM-28" value="&lt;h2&gt;Planung&lt;/h2&gt;" style="rounded=0;whiteSpace=wrap;html=1;glass=0;strokeWidth=6;dashed=1;perimeterSpacing=6;gradientColor=none;fillColor=none;verticalAlign=top;" parent="1" vertex="1">
          <mxGeometry x="460" y="315" width="320" height="270" as="geometry" />
        </mxCell>
        <mxCell id="Tn2vft9ix7Atuxw_kMJM-2" value="is type of" style="edgeStyle=orthogonalEdgeStyle;rounded=0;orthogonalLoop=1;jettySize=auto;html=1;" parent="1" source="Tn2vft9ix7Atuxw_kMJM-1" target="Tn2vft9ix7Atuxw_kMJM-7" edge="1">
          <mxGeometry relative="1" as="geometry">
            <mxPoint x="360" y="140" as="targetPoint" />
          </mxGeometry>
        </mxCell>
        <mxCell id="Tn2vft9ix7Atuxw_kMJM-1" value="&lt;div&gt;Riss01&lt;/div&gt;" style="whiteSpace=wrap;html=1;aspect=fixed;flipH=0;flipV=1;fillColor=#f8cecc;strokeColor=#b85450;" parent="1" vertex="1">
          <mxGeometry x="90" y="130" width="80" height="80" as="geometry" />
        </mxCell>
        <mxCell id="Tn2vft9ix7Atuxw_kMJM-10" value="subclass of" style="edgeStyle=orthogonalEdgeStyle;rounded=0;orthogonalLoop=1;jettySize=auto;html=1;entryX=0.5;entryY=1;entryDx=0;entryDy=0;exitX=0.5;exitY=0;exitDx=0;exitDy=0;" parent="1" source="Tn2vft9ix7Atuxw_kMJM-9" target="Tn2vft9ix7Atuxw_kMJM-7" edge="1">
          <mxGeometry relative="1" as="geometry">
            <mxPoint x="420" y="180" as="sourcePoint" />
          </mxGeometry>
        </mxCell>
        <mxCell id="Tn2vft9ix7Atuxw_kMJM-7" value="Failure" style="rounded=0;whiteSpace=wrap;html=1;" parent="1" vertex="1">
          <mxGeometry x="300" y="100" width="120" height="60" as="geometry" />
        </mxCell>
        <mxCell id="Tn2vft9ix7Atuxw_kMJM-8" value="is type of" style="edgeStyle=orthogonalEdgeStyle;rounded=0;orthogonalLoop=1;jettySize=auto;html=1;exitX=1;exitY=0.75;exitDx=0;exitDy=0;entryX=0;entryY=0.5;entryDx=0;entryDy=0;" parent="1" source="Tn2vft9ix7Atuxw_kMJM-1" target="Tn2vft9ix7Atuxw_kMJM-9" edge="1">
          <mxGeometry relative="1" as="geometry">
            <mxPoint x="460" y="220" as="targetPoint" />
            <mxPoint x="240" y="150" as="sourcePoint" />
          </mxGeometry>
        </mxCell>
        <mxCell id="Tn2vft9ix7Atuxw_kMJM-9" value="Confirmity" style="rounded=0;whiteSpace=wrap;html=1;" parent="1" vertex="1">
          <mxGeometry x="300" y="220" width="120" height="60" as="geometry" />
        </mxCell>
        <mxCell id="Tn2vft9ix7Atuxw_kMJM-11" value="hasInspectionType" style="edgeStyle=orthogonalEdgeStyle;rounded=0;orthogonalLoop=1;jettySize=auto;html=1;exitX=1;exitY=0.5;exitDx=0;exitDy=0;entryX=0;entryY=0.5;entryDx=0;entryDy=0;" parent="1" source="Tn2vft9ix7Atuxw_kMJM-15" edge="1" target="mzHPEcnl7w1M8_bxEh7E-2">
          <mxGeometry relative="1" as="geometry">
            <mxPoint x="120" y="340" as="targetPoint" />
            <mxPoint x="140" y="340" as="sourcePoint" />
            <Array as="points">
              <mxPoint x="720" y="130" />
              <mxPoint x="720" y="130" />
            </Array>
          </mxGeometry>
        </mxCell>
        <mxCell id="Tn2vft9ix7Atuxw_kMJM-12" value="Schwundriss" style="rounded=0;whiteSpace=wrap;html=1;fillColor=#f8cecc;strokeColor=#b85450;" parent="1" vertex="1">
          <mxGeometry x="60" y="340" width="120" height="60" as="geometry" />
        </mxCell>
        <mxCell id="Tn2vft9ix7Atuxw_kMJM-13" value="is type of" style="edgeStyle=orthogonalEdgeStyle;rounded=0;orthogonalLoop=1;jettySize=auto;html=1;exitX=1;exitY=0.5;exitDx=0;exitDy=0;entryX=0;entryY=0.5;entryDx=0;entryDy=0;" parent="1" source="Tn2vft9ix7Atuxw_kMJM-12" target="Tn2vft9ix7Atuxw_kMJM-14" edge="1">
          <mxGeometry relative="1" as="geometry">
            <mxPoint x="500" y="370" as="targetPoint" />
            <mxPoint x="200" y="340" as="sourcePoint" />
          </mxGeometry>
        </mxCell>
        <mxCell id="Tn2vft9ix7Atuxw_kMJM-14" value="FailureType" style="rounded=0;whiteSpace=wrap;html=1;" parent="1" vertex="1">
          <mxGeometry x="294" y="340" width="120" height="60" as="geometry" />
        </mxCell>
        <mxCell id="mzHPEcnl7w1M8_bxEh7E-5" style="edgeStyle=orthogonalEdgeStyle;rounded=0;orthogonalLoop=1;jettySize=auto;html=1;" edge="1" parent="1">
          <mxGeometry relative="1" as="geometry">
            <mxPoint x="660" y="140" as="sourcePoint" />
            <mxPoint x="660" y="410" as="targetPoint" />
            <Array as="points">
              <mxPoint x="740" y="140" />
              <mxPoint x="740" y="410" />
            </Array>
          </mxGeometry>
        </mxCell>
        <mxCell id="mzHPEcnl7w1M8_bxEh7E-6" value="&lt;div&gt;hasInspectionProcedure&lt;/div&gt;" style="edgeLabel;html=1;align=center;verticalAlign=middle;resizable=0;points=[];" vertex="1" connectable="0" parent="mzHPEcnl7w1M8_bxEh7E-5">
          <mxGeometry x="-0.1116" y="-2" relative="1" as="geometry">
            <mxPoint as="offset" />
          </mxGeometry>
        </mxCell>
        <mxCell id="Tn2vft9ix7Atuxw_kMJM-15" value="Inspection01" style="rounded=0;whiteSpace=wrap;html=1;fillColor=#f8cecc;strokeColor=#b85450;" parent="1" vertex="1">
          <mxGeometry x="540" y="100" width="120" height="60" as="geometry" />
        </mxCell>
        <mxCell id="Tn2vft9ix7Atuxw_kMJM-16" value="&lt;div&gt;detect&lt;/div&gt;" style="edgeStyle=orthogonalEdgeStyle;rounded=0;orthogonalLoop=1;jettySize=auto;html=1;exitX=0.5;exitY=0;exitDx=0;exitDy=0;" parent="1" source="Tn2vft9ix7Atuxw_kMJM-15" edge="1">
          <mxGeometry relative="1" as="geometry">
            <mxPoint x="130" y="130" as="targetPoint" />
            <mxPoint x="130" y="220" as="sourcePoint" />
            <Array as="points">
              <mxPoint x="600" y="70" />
              <mxPoint x="130" y="70" />
            </Array>
          </mxGeometry>
        </mxCell>
        <mxCell id="Tn2vft9ix7Atuxw_kMJM-17" value="Inspection" style="rounded=0;whiteSpace=wrap;html=1;" parent="1" vertex="1">
          <mxGeometry x="550" y="210" width="120" height="60" as="geometry" />
        </mxCell>
        <mxCell id="Tn2vft9ix7Atuxw_kMJM-18" value="is type of" style="edgeStyle=orthogonalEdgeStyle;rounded=0;orthogonalLoop=1;jettySize=auto;html=1;entryX=0.5;entryY=0;entryDx=0;entryDy=0;exitX=0.5;exitY=1;exitDx=0;exitDy=0;" parent="1" source="Tn2vft9ix7Atuxw_kMJM-15" target="Tn2vft9ix7Atuxw_kMJM-17" edge="1">
          <mxGeometry relative="1" as="geometry">
            <mxPoint x="310" y="140" as="targetPoint" />
            <mxPoint x="170" y="180" as="sourcePoint" />
          </mxGeometry>
        </mxCell>
        <mxCell id="Tn2vft9ix7Atuxw_kMJM-21" value="VisuelleRissPrÃ¼fung" style="rounded=0;whiteSpace=wrap;html=1;fillColor=#f8cecc;strokeColor=#b85450;" parent="1" vertex="1">
          <mxGeometry x="540" y="370" width="120" height="60" as="geometry" />
        </mxCell>
        <mxCell id="Tn2vft9ix7Atuxw_kMJM-22" value="hasTargetFailure" style="edgeStyle=orthogonalEdgeStyle;rounded=0;orthogonalLoop=1;jettySize=auto;html=1;exitX=0.5;exitY=0;exitDx=0;exitDy=0;" parent="1" source="Tn2vft9ix7Atuxw_kMJM-21" edge="1">
          <mxGeometry relative="1" as="geometry">
            <mxPoint x="150" y="340" as="targetPoint" />
            <mxPoint x="130" y="490" as="sourcePoint" />
            <Array as="points">
              <mxPoint x="600" y="300" />
              <mxPoint x="150" y="300" />
              <mxPoint x="150" y="340" />
            </Array>
          </mxGeometry>
        </mxCell>
        <mxCell id="Tn2vft9ix7Atuxw_kMJM-23" value="InspectionProcedure" style="rounded=0;whiteSpace=wrap;html=1;" parent="1" vertex="1">
          <mxGeometry x="550" y="480" width="120" height="60" as="geometry" />
        </mxCell>
        <mxCell id="Tn2vft9ix7Atuxw_kMJM-24" value="is type of" style="edgeStyle=orthogonalEdgeStyle;rounded=0;orthogonalLoop=1;jettySize=auto;html=1;entryX=0.5;entryY=0;entryDx=0;entryDy=0;exitX=0.5;exitY=1;exitDx=0;exitDy=0;" parent="1" source="Tn2vft9ix7Atuxw_kMJM-21" target="Tn2vft9ix7Atuxw_kMJM-23" edge="1">
          <mxGeometry relative="1" as="geometry">
            <mxPoint x="310" y="410" as="targetPoint" />
            <mxPoint x="170" y="450" as="sourcePoint" />
          </mxGeometry>
        </mxCell>
        <mxCell id="Tn2vft9ix7Atuxw_kMJM-25" value="&lt;div&gt;0,05&lt;/div&gt;" style="ellipse;whiteSpace=wrap;html=1;" parent="1" vertex="1">
          <mxGeometry x="330" y="495" width="130" height="30" as="geometry" />
        </mxCell>
        <mxCell id="Tn2vft9ix7Atuxw_kMJM-26" value="hasProperbility" style="edgeStyle=orthogonalEdgeStyle;rounded=0;orthogonalLoop=1;jettySize=auto;html=1;exitX=0.75;exitY=1;exitDx=0;exitDy=0;entryX=0.5;entryY=0;entryDx=0;entryDy=0;" parent="1" source="Tn2vft9ix7Atuxw_kMJM-12" target="Tn2vft9ix7Atuxw_kMJM-25" edge="1">
          <mxGeometry relative="1" as="geometry">
            <mxPoint x="304" y="380" as="targetPoint" />
            <mxPoint x="190" y="380" as="sourcePoint" />
          </mxGeometry>
        </mxCell>
        <mxCell id="Tn2vft9ix7Atuxw_kMJM-30" value="FailureDescription" style="rounded=0;whiteSpace=wrap;html=1;glass=0;strokeWidth=6;dashed=1;perimeterSpacing=6;gradientColor=none;fillColor=none;verticalAlign=top;" parent="1" vertex="1">
          <mxGeometry x="50" y="-230" width="510" height="260" as="geometry" />
        </mxCell>
        <mxCell id="Tn2vft9ix7Atuxw_kMJM-31" value="Record" style="rounded=0;whiteSpace=wrap;html=1;" parent="1" vertex="1">
          <mxGeometry x="420" y="-80" width="120" height="60" as="geometry" />
        </mxCell>
        <mxCell id="Tn2vft9ix7Atuxw_kMJM-32" value="&lt;div&gt;SchundrissProtkoll01&lt;/div&gt;&lt;div&gt;&lt;br&gt;&lt;/div&gt;" style="rounded=0;whiteSpace=wrap;html=1;fillColor=#f8cecc;strokeColor=#b85450;" parent="1" vertex="1">
          <mxGeometry x="80" y="-70" width="120" height="60" as="geometry" />
        </mxCell>
        <mxCell id="Tn2vft9ix7Atuxw_kMJM-33" value="is type of" style="edgeStyle=orthogonalEdgeStyle;rounded=0;orthogonalLoop=1;jettySize=auto;html=1;exitX=1;exitY=0.5;exitDx=0;exitDy=0;entryX=0;entryY=0.5;entryDx=0;entryDy=0;" parent="1" source="Tn2vft9ix7Atuxw_kMJM-32" target="Tn2vft9ix7Atuxw_kMJM-31" edge="1">
          <mxGeometry relative="1" as="geometry">
            <mxPoint x="370" y="-70" as="targetPoint" />
            <mxPoint x="230" y="-30" as="sourcePoint" />
          </mxGeometry>
        </mxCell>
        <mxCell id="Tn2vft9ix7Atuxw_kMJM-34" value="isDocumentedBy" style="edgeStyle=orthogonalEdgeStyle;rounded=0;orthogonalLoop=1;jettySize=auto;html=1;exitX=0.5;exitY=0;exitDx=0;exitDy=0;entryX=0.5;entryY=1;entryDx=0;entryDy=0;" parent="1" source="Tn2vft9ix7Atuxw_kMJM-7" target="Tn2vft9ix7Atuxw_kMJM-31" edge="1">
          <mxGeometry relative="1" as="geometry">
            <mxPoint x="140" y="140" as="targetPoint" />
            <mxPoint x="610" y="110" as="sourcePoint" />
            <Array as="points">
              <mxPoint x="370" y="100" />
              <mxPoint x="370" y="10" />
              <mxPoint x="480" y="10" />
            </Array>
          </mxGeometry>
        </mxCell>
        <mxCell id="Tn2vft9ix7Atuxw_kMJM-35" value="hasRecord" style="edgeStyle=orthogonalEdgeStyle;rounded=0;orthogonalLoop=1;jettySize=auto;html=1;exitX=1.008;exitY=0.4;exitDx=0;exitDy=0;exitPerimeter=0;" parent="1" source="Tn2vft9ix7Atuxw_kMJM-17" target="Tn2vft9ix7Atuxw_kMJM-31" edge="1">
          <mxGeometry relative="1" as="geometry">
            <mxPoint x="490" y="-10" as="targetPoint" />
            <mxPoint x="370" y="110" as="sourcePoint" />
            <Array as="points">
              <mxPoint x="700" y="234" />
              <mxPoint x="700" y="40" />
              <mxPoint x="490" y="40" />
            </Array>
          </mxGeometry>
        </mxCell>
        <mxCell id="Tn2vft9ix7Atuxw_kMJM-36" value="Protokoll" style="rounded=0;whiteSpace=wrap;html=1;" parent="1" vertex="1">
          <mxGeometry x="250" y="-150" width="120" height="60" as="geometry" />
        </mxCell>
        <mxCell id="Tn2vft9ix7Atuxw_kMJM-37" value="is type of" style="edgeStyle=orthogonalEdgeStyle;rounded=0;orthogonalLoop=1;jettySize=auto;html=1;exitX=0.5;exitY=0;exitDx=0;exitDy=0;entryX=0.5;entryY=1;entryDx=0;entryDy=0;" parent="1" source="Tn2vft9ix7Atuxw_kMJM-32" target="Tn2vft9ix7Atuxw_kMJM-51" edge="1">
          <mxGeometry relative="1" as="geometry">
            <mxPoint x="200" y="-140" as="targetPoint" />
            <mxPoint x="30" y="-110" as="sourcePoint" />
          </mxGeometry>
        </mxCell>
        <mxCell id="Tn2vft9ix7Atuxw_kMJM-38" value="subclass of" style="edgeStyle=orthogonalEdgeStyle;rounded=0;orthogonalLoop=1;jettySize=auto;html=1;entryX=1;entryY=0.5;entryDx=0;entryDy=0;exitX=0.5;exitY=0;exitDx=0;exitDy=0;" parent="1" source="Tn2vft9ix7Atuxw_kMJM-31" target="Tn2vft9ix7Atuxw_kMJM-36" edge="1">
          <mxGeometry relative="1" as="geometry">
            <mxPoint x="370" y="230" as="sourcePoint" />
            <mxPoint x="370" y="170" as="targetPoint" />
            <Array as="points">
              <mxPoint x="480" y="-120" />
            </Array>
          </mxGeometry>
        </mxCell>
        <mxCell id="Tn2vft9ix7Atuxw_kMJM-39" value="isDocumentedBy" style="edgeStyle=orthogonalEdgeStyle;rounded=0;orthogonalLoop=1;jettySize=auto;html=1;exitX=0.5;exitY=0;exitDx=0;exitDy=0;entryX=0.317;entryY=1.05;entryDx=0;entryDy=0;entryPerimeter=0;" parent="1" target="Tn2vft9ix7Atuxw_kMJM-32" edge="1">
          <mxGeometry relative="1" as="geometry">
            <mxPoint x="120" y="-20" as="targetPoint" />
            <mxPoint x="120" y="130" as="sourcePoint" />
            <Array as="points">
              <mxPoint x="120" y="20" />
              <mxPoint x="118" y="20" />
            </Array>
          </mxGeometry>
        </mxCell>
        <mxCell id="Tn2vft9ix7Atuxw_kMJM-41" value="Inspection01Protocoll" style="rounded=0;whiteSpace=wrap;html=1;fillColor=#f8cecc;strokeColor=#b85450;" parent="1" vertex="1">
          <mxGeometry x="740" y="-90" width="120" height="60" as="geometry" />
        </mxCell>
        <mxCell id="Tn2vft9ix7Atuxw_kMJM-43" value="hasRecord" style="edgeStyle=orthogonalEdgeStyle;rounded=0;orthogonalLoop=1;jettySize=auto;html=1;exitX=0.75;exitY=0;exitDx=0;exitDy=0;entryX=0.5;entryY=1;entryDx=0;entryDy=0;" parent="1" source="Tn2vft9ix7Atuxw_kMJM-15" target="Tn2vft9ix7Atuxw_kMJM-41" edge="1">
          <mxGeometry relative="1" as="geometry">
            <mxPoint x="500" y="-10" as="targetPoint" />
            <mxPoint x="680.96" y="244" as="sourcePoint" />
            <Array as="points">
              <mxPoint x="630" />
              <mxPoint x="800" />
            </Array>
          </mxGeometry>
        </mxCell>
        <mxCell id="Tn2vft9ix7Atuxw_kMJM-44" value="is type of" style="edgeStyle=orthogonalEdgeStyle;rounded=0;orthogonalLoop=1;jettySize=auto;html=1;exitX=0.5;exitY=0;exitDx=0;exitDy=0;entryX=1;entryY=0.25;entryDx=0;entryDy=0;" parent="1" source="Tn2vft9ix7Atuxw_kMJM-41" target="Tn2vft9ix7Atuxw_kMJM-36" edge="1">
          <mxGeometry relative="1" as="geometry">
            <mxPoint x="260" y="-110" as="targetPoint" />
            <mxPoint x="150" y="-60" as="sourcePoint" />
            <Array as="points">
              <mxPoint x="800" y="-110" />
              <mxPoint x="370" y="-110" />
            </Array>
          </mxGeometry>
        </mxCell>
        <mxCell id="Tn2vft9ix7Atuxw_kMJM-45" value="30 â¬/m" style="ellipse;whiteSpace=wrap;html=1;" parent="1" vertex="1">
          <mxGeometry x="260" y="540" width="130" height="30" as="geometry" />
        </mxCell>
        <mxCell id="Tn2vft9ix7Atuxw_kMJM-46" value="hasNacharbeitungskosten" style="edgeStyle=orthogonalEdgeStyle;rounded=0;orthogonalLoop=1;jettySize=auto;html=1;entryX=0.5;entryY=0;entryDx=0;entryDy=0;" parent="1" source="Tn2vft9ix7Atuxw_kMJM-12" target="Tn2vft9ix7Atuxw_kMJM-45" edge="1">
          <mxGeometry relative="1" as="geometry">
            <mxPoint x="545" y="560" as="targetPoint" />
            <mxPoint x="160" y="410" as="sourcePoint" />
            <Array as="points">
              <mxPoint x="120" y="510" />
              <mxPoint x="325" y="510" />
            </Array>
          </mxGeometry>
        </mxCell>
        <mxCell id="Tn2vft9ix7Atuxw_kMJM-47" value="is type of" style="edgeStyle=orthogonalEdgeStyle;rounded=0;orthogonalLoop=1;jettySize=auto;html=1;exitX=0;exitY=0.5;exitDx=0;exitDy=0;entryX=1;entryY=0.5;entryDx=0;entryDy=0;" parent="1" source="Tn2vft9ix7Atuxw_kMJM-41" target="Tn2vft9ix7Atuxw_kMJM-31" edge="1">
          <mxGeometry relative="1" as="geometry">
            <mxPoint x="430" y="-40" as="targetPoint" />
            <mxPoint x="210" y="-30" as="sourcePoint" />
          </mxGeometry>
        </mxCell>
        <mxCell id="Tn2vft9ix7Atuxw_kMJM-48" value="&lt;div&gt;0,05&lt;/div&gt;" style="ellipse;whiteSpace=wrap;html=1;" parent="1" vertex="1">
          <mxGeometry x="40" y="555" width="130" height="30" as="geometry" />
        </mxCell>
        <mxCell id="Tn2vft9ix7Atuxw_kMJM-49" value="hasProperbilityToBeDetected" style="edgeStyle=orthogonalEdgeStyle;rounded=0;orthogonalLoop=1;jettySize=auto;html=1;exitX=0.25;exitY=1;exitDx=0;exitDy=0;entryX=0.5;entryY=0;entryDx=0;entryDy=0;" parent="1" source="Tn2vft9ix7Atuxw_kMJM-12" target="Tn2vft9ix7Atuxw_kMJM-48" edge="1">
          <mxGeometry relative="1" as="geometry">
            <mxPoint x="64" y="427.5" as="targetPoint" />
            <mxPoint x="-90" y="447.5" as="sourcePoint" />
          </mxGeometry>
        </mxCell>
        <mxCell id="Tn2vft9ix7Atuxw_kMJM-50" value="subclass of" style="edgeStyle=orthogonalEdgeStyle;rounded=0;orthogonalLoop=1;jettySize=auto;html=1;entryX=0.5;entryY=0;entryDx=0;entryDy=0;exitX=1;exitY=0.5;exitDx=0;exitDy=0;" parent="1" source="Tn2vft9ix7Atuxw_kMJM-51" target="Tn2vft9ix7Atuxw_kMJM-36" edge="1">
          <mxGeometry relative="1" as="geometry">
            <mxPoint x="210" y="-240" as="sourcePoint" />
            <mxPoint x="150" y="-260" as="targetPoint" />
          </mxGeometry>
        </mxCell>
        <mxCell id="Tn2vft9ix7Atuxw_kMJM-51" value="SchwundrissProtokoll" style="rounded=0;whiteSpace=wrap;html=1;" parent="1" vertex="1">
          <mxGeometry x="90" y="-200" width="120" height="60" as="geometry" />
        </mxCell>
        <mxCell id="mzHPEcnl7w1M8_bxEh7E-1" value="InspectionType" style="rounded=0;whiteSpace=wrap;html=1;" vertex="1" parent="1">
          <mxGeometry x="800" y="210" width="120" height="60" as="geometry" />
        </mxCell>
        <mxCell id="mzHPEcnl7w1M8_bxEh7E-2" value="RissPrÃ¼fung" style="rounded=0;whiteSpace=wrap;html=1;fillColor=#f8cecc;strokeColor=#b85450;" vertex="1" parent="1">
          <mxGeometry x="790" y="100" width="120" height="60" as="geometry" />
        </mxCell>
        <mxCell id="mzHPEcnl7w1M8_bxEh7E-3" value="is type of" style="edgeStyle=orthogonalEdgeStyle;rounded=0;orthogonalLoop=1;jettySize=auto;html=1;entryX=0.5;entryY=0;entryDx=0;entryDy=0;exitX=0.5;exitY=1;exitDx=0;exitDy=0;" edge="1" parent="1" source="mzHPEcnl7w1M8_bxEh7E-2" target="mzHPEcnl7w1M8_bxEh7E-1">
          <mxGeometry relative="1" as="geometry">
            <mxPoint x="620" y="220" as="targetPoint" />
            <mxPoint x="610" y="170" as="sourcePoint" />
          </mxGeometry>
        </mxCell>
        <mxCell id="mzHPEcnl7w1M8_bxEh7E-4" value="hasFailureType" style="edgeStyle=orthogonalEdgeStyle;rounded=0;orthogonalLoop=1;jettySize=auto;html=1;exitX=0.5;exitY=1;exitDx=0;exitDy=0;" edge="1" parent="1">
          <mxGeometry relative="1" as="geometry">
            <mxPoint x="130" y="350" as="targetPoint" />
            <mxPoint x="140" y="220" as="sourcePoint" />
          </mxGeometry>
        </mxCell>
      </root>
    </mxGraphModel>
  </diagram>
</mxfile>
